<svg xmlns="http://www.w3.org/2000/svg" width="1800" height="960" viewBox="0 0 1800 960">
<rect width="100%" height="100%" fill="#0b1020"/>
<text x="900" y="48" text-anchor="middle" fill="#f8fafc" font-size="32" font-family="Arial, sans-serif">Storage Benchmark Allocations (allocs/op)</text>
<line x1="220" y1="90" x2="1740" y2="90" stroke="#334155" stroke-width="1"/>
<text x="208" y="95" fill="#94a3b8" font-size="16" text-anchor="end" font-family="Arial, sans-serif">91</text>
<line x1="220" y1="252" x2="1740" y2="252" stroke="#334155" stroke-width="1"/>
<text x="208" y="257" fill="#94a3b8" font-size="16" text-anchor="end" font-family="Arial, sans-serif">68</text>
<line x1="220" y1="415" x2="1740" y2="415" stroke="#334155" stroke-width="1"/>
<text x="208" y="420" fill="#94a3b8" font-size="16" text-anchor="end" font-family="Arial, sans-serif">46</text>
<line x1="220" y1="577" x2="1740" y2="577" stroke="#334155" stroke-width="1"/>
<text x="208" y="582" fill="#94a3b8" font-size="16" text-anchor="end" font-family="Arial, sans-serif">23</text>
<line x1="220" y1="740" x2="1740" y2="740" stroke="#334155" stroke-width="1"/>
<text x="208" y="745" fill="#94a3b8" font-size="16" text-anchor="end" font-family="Arial, sans-serif">0</text>
<rect x="220" y="655" width="18" height="85" rx="4" fill="#0f766e"/>
<rect x="246" y="683" width="18" height="57" rx="4" fill="#2563eb"/>
<rect x="272" y="705" width="18" height="35" rx="4" fill="#ea580c"/>
<rect x="298" y="90" width="18" height="650" rx="4" fill="#7c3aed"/>
<rect x="324" y="283" width="18" height="457" rx="4" fill="#dc2626"/>
<rect x="350" y="712" width="18" height="28" rx="4" fill="#059669"/>
<text x="290" y="780" fill="#e2e8f0" font-size="16" text-anchor="middle" font-family="Arial, sans-serif">local</text>
<rect x="220" y="835" width="22" height="22" rx="4" fill="#0f766e"/>
<text x="252" y="852" fill="#e2e8f0" font-size="16" font-family="Arial, sans-serif">put_small</text>
<rect x="470" y="835" width="22" height="22" rx="4" fill="#2563eb"/>
<text x="502" y="852" fill="#e2e8f0" font-size="16" font-family="Arial, sans-serif">get_small</text>
<rect x="720" y="835" width="22" height="22" rx="4" fill="#ea580c"/>
<text x="752" y="852" fill="#e2e8f0" font-size="16" font-family="Arial, sans-serif">exists</text>
<rect x="970" y="835" width="22" height="22" rx="4" fill="#7c3aed"/>
<text x="1002" y="852" fill="#e2e8f0" font-size="16" font-family="Arial, sans-serif">list</text>
<rect x="1220" y="835" width="22" height="22" rx="4" fill="#dc2626"/>
<text x="1252" y="852" fill="#e2e8f0" font-size="16" font-family="Arial, sans-serif">walk</text>
<rect x="1470" y="835" width="22" height="22" rx="4" fill="#059669"/>
<text x="1502" y="852" fill="#e2e8f0" font-size="16" font-family="Arial, sans-serif">delete</text>
</svg>
